<svg width="62" height="13" viewBox="0 0 62 13" fill="none" xmlns="http://www.w3.org/2000/svg">
<path d="M11.5756 0.0404053H0.0957031V12.7554H11.5756V0.0404053Z" fill="#00B67A"/>
<path d="M23.8959 0.0404053H12.416V12.7554H23.8959V0.0404053Z" fill="#00B67A"/>
<path d="M36.3354 0.0404053H24.8555V12.7554H36.3354V0.0404053Z" fill="#00B67A"/>
<path d="M48.6498 0.0404053H37.1699V12.7554H48.6498V0.0404053Z" fill="#00B67A"/>
<path d="M61.0893 0.0404053H49.6094V12.7554H61.0893V0.0404053Z" fill="#DCDCE6"/>
<path d="M49.6094 0.0404053H55.3493V12.6239H49.6094V0.0404053Z" fill="#00B67A"/>
<path d="M5.71685 8.52212L7.51144 7.99106L8.22836 10.5098L5.71685 8.52212ZM9.7855 5.34083H6.67579L5.71685 2.15955L4.7579 5.34083H1.77148L4.283 7.32851L3.32406 10.5098L5.83557 8.52212L7.38815 7.32851L9.7855 5.34083Z" fill="white"/>
<path d="M18.1548 8.52212L19.9494 7.99106L20.6664 10.5098L18.1548 8.52212ZM22.1002 5.34083H18.9905L18.0315 2.15955L17.0726 5.34083H13.9629L16.4744 7.32851L15.5155 10.5098L18.027 8.52212L19.5796 7.32851L22.1002 5.34083Z" fill="white"/>
<path d="M30.5943 8.52212L32.3889 7.99106L33.1058 10.5098L30.5943 8.52212ZM34.5397 5.34083H31.4299L30.471 2.15955L29.5121 5.34083H26.4023L28.9139 7.32851L28.0828 10.5047L30.5943 8.51706L32.1469 7.32345L34.5397 5.34083Z" fill="white"/>
<path d="M42.9105 8.52212L44.705 7.99106L45.422 10.5098L42.9105 8.52212ZM46.9791 5.34083H43.8694L42.9105 2.15955L41.9515 5.34083H38.8418L41.3533 7.32851L40.3944 10.5098L42.9059 8.52212L44.4585 7.32851L46.9791 5.34083Z" fill="white"/>
<path d="M55.3499 8.52212L57.1445 7.99106L57.8614 10.5098L55.3499 8.52212ZM59.2953 5.34083H56.1856L55.2266 2.15955L54.391 5.34083H51.2812L53.7928 7.32851L52.8338 10.5098L55.3453 8.52212L56.8979 7.32851L59.2953 5.34083Z" fill="white"/>
</svg>
