<svg width="64" height="48" viewBox="0 0 64 48" fill="none" xmlns="http://www.w3.org/2000/svg">
<rect x="1" y="1" width="62" height="46" rx="7" fill="white" style="fill:white;fill-opacity:1;"/>
<rect x="1" y="1" width="62" height="46" rx="7" stroke="#ECECF0" style="stroke:#ECECF0;stroke:color(display-p3 0.9255 0.9255 0.9412);stroke-opacity:1;" stroke-width="2"/>
<path d="M30.3364 23.7271V29.6238H28.5009V15.0624H33.367C34.6003 15.0624 35.6519 15.4815 36.5124 16.3197C37.3919 17.1579 37.8317 18.1813 37.8317 19.3899C37.8317 20.6277 37.3919 21.6511 36.5124 22.4795C35.6615 23.308 34.6099 23.7173 33.367 23.7173H30.3364V23.7271ZM30.3364 16.8558V21.9337H33.4053C34.1319 21.9337 34.7437 21.6803 35.2217 21.1832C35.7093 20.6862 35.9579 20.0819 35.9579 19.3996C35.9579 18.7271 35.7093 18.1326 35.2217 17.6355C34.7437 17.1189 34.1414 16.8655 33.4053 16.8655H30.3364V16.8558Z" fill="#3C4043" style="fill:#3C4043;fill:color(display-p3 0.2353 0.2510 0.2627);fill-opacity:1;"/>
<path d="M42.6313 19.3314C43.9889 19.3314 45.0596 19.7017 45.8436 20.4425C46.6275 21.1832 47.0195 22.1969 47.0195 23.4834V29.6238H45.27V28.2397H45.1935C44.4382 29.3801 43.4248 29.9454 42.1629 29.9454C41.0826 29.9454 40.1839 29.6238 39.4573 28.9707C38.7307 28.3177 38.3674 27.5087 38.3674 26.5341C38.3674 25.5009 38.7498 24.6822 39.5147 24.0779C40.2795 23.4639 41.3024 23.1618 42.574 23.1618C43.6638 23.1618 44.5625 23.3664 45.2604 23.7758V23.347C45.2604 22.6939 45.0118 22.1481 44.5051 21.69C43.9984 21.2319 43.4057 21.0078 42.7269 21.0078C41.704 21.0078 40.8913 21.4464 40.2986 22.3333L38.6829 21.3002C39.572 19.9844 40.8913 19.3314 42.6313 19.3314ZM40.2604 26.5633C40.2604 27.0507 40.4611 27.46 40.8722 27.7816C41.2738 28.1033 41.7518 28.269 42.2967 28.269C43.0711 28.269 43.7594 27.9766 44.3617 27.3918C44.964 26.807 45.27 26.1247 45.27 25.3353C44.6963 24.8772 43.9028 24.6433 42.8799 24.6433C42.1342 24.6433 41.5128 24.8284 41.0156 25.1891C40.5089 25.5692 40.2604 26.0273 40.2604 26.5633Z" fill="#3C4043" style="fill:#3C4043;fill:color(display-p3 0.2353 0.2510 0.2627);fill-opacity:1;"/>
<path d="M57.0003 19.653L50.8818 34H48.9888L51.2642 28.9805L47.2297 19.653H49.2278L52.1342 26.807H52.1724L55.0022 19.653H57.0003Z" fill="#3C4043" style="fill:#3C4043;fill:color(display-p3 0.2353 0.2510 0.2627);fill-opacity:1;"/>
<path d="M23.0351 22.538C23.0351 21.9279 22.9815 21.3441 22.8821 20.7827H15.188V23.999L19.6192 24C19.4394 25.0702 18.861 25.9825 17.9748 26.5906V28.6774H20.6125C22.1526 27.2242 23.0351 25.076 23.0351 22.538Z" fill="#4285F4" style="fill:#4285F4;fill:color(display-p3 0.2588 0.5216 0.9569);fill-opacity:1;"/>
<path d="M17.9758 26.5907C17.2416 27.0955 16.2961 27.3909 15.19 27.3909C13.0532 27.3909 11.2406 25.923 10.5915 23.9445H7.87061V26.0965C9.2186 28.8236 11.9892 30.6949 15.19 30.6949C17.4022 30.6949 19.2607 29.9532 20.6135 28.6764L17.9758 26.5907Z" fill="#34A853" style="fill:#34A853;fill:color(display-p3 0.2039 0.6588 0.3255);fill-opacity:1;"/>
<path d="M10.3355 22.348C10.3355 21.7924 10.4263 21.2554 10.5917 20.7505V18.5984H7.87082C7.31345 19.7261 6.99988 20.999 6.99988 22.348C6.99988 23.6969 7.31441 24.9698 7.87082 26.0975L10.5917 23.9454C10.4263 23.4406 10.3355 22.9035 10.3355 22.348Z" fill="#FABB05" style="fill:#FABB05;fill:color(display-p3 0.9804 0.7333 0.0196);fill-opacity:1;"/>
<path d="M15.19 17.3041C16.3974 17.3041 17.4787 17.7281 18.3324 18.5565L20.6699 16.1754C19.2502 14.8275 17.3993 14 15.19 14C11.9901 14 9.2186 15.8713 7.87061 18.5984L10.5915 20.7505C11.2406 18.7719 13.0532 17.3041 15.19 17.3041Z" fill="#E94235" style="fill:#E94235;fill:color(display-p3 0.9137 0.2588 0.2078);fill-opacity:1;"/>
</svg>
