<svg width="64" height="48" viewBox="0 0 64 48" fill="none" xmlns="http://www.w3.org/2000/svg">
<g clip-path="url(#clip0_2740_2119)">
<rect width="64" height="48" rx="8" fill="#FFB3C7"/>
<g clip-path="url(#clip1_2740_2119)">
<path d="M64 -8H0V56H64V-8Z" fill="#FFB1D2"/>
<mask id="mask0_2740_2119" style="mask-type:luminance" maskUnits="userSpaceOnUse" x="9" y="18" width="46" height="12">
<path d="M54.8267 18.0869H9.17334V29.1802H54.8267V18.0869Z" fill="white"/>
</mask>
<g mask="url(#mask0_2740_2119)">
<path d="M50.6291 27.1922C49.5667 27.1922 48.7386 26.3136 48.7386 25.2468C48.7386 24.1799 49.5667 23.301 50.6291 23.301C51.692 23.301 52.5197 24.1799 52.5197 25.2468C52.5197 26.3133 51.692 27.1922 50.6291 27.1922ZM50.0979 29.2476C51.0042 29.2476 52.1604 28.9023 52.8013 27.5531L52.8636 27.5845C52.5824 28.3217 52.5824 28.7613 52.5824 28.871V29.0436H54.8638V21.4496H52.5824V21.6222C52.5824 21.7322 52.5824 22.1715 52.8636 22.9087L52.8013 22.9404C52.1604 21.5909 51.0042 21.2456 50.0979 21.2456C47.9258 21.2456 46.3945 22.9717 46.3945 25.2468C46.3945 27.5214 47.9258 29.2476 50.0979 29.2476ZM42.4254 21.2456C41.3943 21.2456 40.5818 21.6065 39.9255 22.9404L39.8628 22.9083C40.144 22.1711 40.144 21.7318 40.144 21.6218V21.4492H37.8626V29.0432H40.2066V25.042C40.2066 23.9912 40.8159 23.3319 41.8004 23.3319C42.7849 23.3319 43.2696 23.8969 43.2696 25.0268V29.0432H45.6132V24.2105C45.6132 22.4847 44.2692 21.2456 42.4254 21.2456ZM34.4718 22.9404L34.4092 22.9083C34.6907 22.1711 34.6907 21.7318 34.6907 21.6218V21.4492H32.4093V29.0432H34.753L34.7686 25.3873C34.7686 24.3208 35.3314 23.6772 36.2531 23.6772C36.503 23.6772 36.7062 23.7086 36.9408 23.7716V21.4496C35.9093 21.2299 34.9875 21.6222 34.4718 22.9404ZM27.0183 27.1922C25.9556 27.1922 25.1278 26.3136 25.1278 25.2468C25.1278 24.1799 25.9556 23.301 27.0183 23.301C28.0811 23.301 28.9089 24.1799 28.9089 25.2468C28.9089 26.3133 28.0811 27.1922 27.0183 27.1922ZM26.487 29.2476C27.3931 29.2476 28.5495 28.9023 29.1905 27.5531L29.2527 27.5845C28.9716 28.3217 28.9716 28.7613 28.9716 28.871V29.0436H31.253V21.4496H28.9716V21.6222C28.9716 21.7322 28.9716 22.1715 29.2527 22.9087L29.1901 22.9404C28.5495 21.5909 27.3931 21.2452 26.487 21.2452C24.3152 21.2452 22.7841 22.9713 22.7841 25.2464C22.7841 27.5211 24.3152 29.2476 26.487 29.2476ZM19.5175 29.0436H21.8616V18.0607H19.5179L19.5175 29.0436ZM17.7992 18.0607H15.4082C15.4082 20.0221 14.2048 21.7792 12.3765 23.0344L11.6579 23.5363V18.0607H9.17334V29.0436H11.6579V23.5993L15.7673 29.0436H18.7989L14.8455 23.8342C16.6429 22.5324 17.8149 20.508 17.7992 18.0607Z" fill="#0B051D"/>
</g>
</g>
</g>
<defs>
<clipPath id="clip0_2740_2119">
<rect width="64" height="48" rx="8" fill="white"/>
</clipPath>
<clipPath id="clip1_2740_2119">
<rect width="64" height="48" fill="white"/>
</clipPath>
</defs>
</svg>
